<?xml version="1.0" encoding="UTF-8"?>
<svg width="16" height="16" viewBox="0 0 16 16" xmlns="http://www.w3.org/2000/svg">
  <g id="aegis-icon">
    <!-- Shield shape -->
    <path d="M8 1 L14 3.5 L14 8.5 C14 11.5 11.5 14 8 15 C4.5 14 2 11.5 2 8.5 L2 3.5 L8 1 Z" 
          fill="currentColor" />
    <!-- Inner shield detail -->
    <path d="M8 3 L11.5 5 L11.5 8.5 C11.5 10.5 9.75 12.5 8 13 C6.25 12.5 4.5 10.5 4.5 8.5 L4.5 5 L8 3 Z" 
          fill="white" opacity="0.3" />
    <!-- Center star/lock symbol -->
    <polygon points="8,5 9,7 11,7 9.5,8.5 10,10.5 8,9 6,10.5 6.5,8.5 5,7 7,7" 
             fill="currentColor" />
  </g>
</svg>